<svg width="32" height="32" viewBox="0 0 32 32" fill="none" xmlns="http://www.w3.org/2000/svg">
<path d="M27.3245 16.7622V15.2278L29.3021 13.543C29.6667 13.2302 29.9059 12.802 29.9775 12.334C30.0491 11.8661 29.9485 11.3885 29.6935 10.9858L27.2627 6.97445C27.0821 6.66985 26.8224 6.41685 26.5096 6.24083C26.1969 6.06482 25.8421 5.97197 25.4809 5.97161C25.257 5.96994 25.0343 6.00381 24.8217 6.07189L22.3188 6.89422C21.8867 6.61464 21.4359 6.36337 20.9695 6.14209L20.4442 3.61494C20.35 3.15324 20.092 2.7385 19.7154 2.44332C19.3388 2.14815 18.8676 1.99135 18.3842 2.00037H13.5639C13.0805 1.99135 12.6093 2.14815 12.2327 2.44332C11.8561 2.7385 11.5981 3.15324 11.5039 3.61494L10.9786 6.14209C10.5089 6.36332 10.0547 6.61458 9.61901 6.89422L7.16763 6.03178C6.95267 5.97725 6.73006 5.95693 6.50844 5.97161C6.14719 5.97197 5.7924 6.06482 5.47965 6.24083C5.16689 6.41685 4.90718 6.66985 4.72655 6.97445L2.29578 10.9858C2.05537 11.3879 1.96603 11.8589 2.04307 12.3181C2.12011 12.7773 2.35874 13.1962 2.71807 13.5029L4.66476 15.2378V16.7722L2.71807 18.457C2.34858 18.7658 2.10343 19.1922 2.02613 19.6603C1.94882 20.1285 2.04435 20.6081 2.29578 21.0142L4.72655 25.0256C4.90718 25.3302 5.16689 25.5831 5.47965 25.7592C5.7924 25.9352 6.14719 26.028 6.50844 26.0284C6.73231 26.0301 6.95496 25.9962 7.16763 25.9281L9.67051 25.1058C10.1026 25.3854 10.5534 25.6366 11.0198 25.8579L11.5451 28.3851C11.6393 28.8468 11.8973 29.2615 12.2739 29.5567C12.6505 29.8518 13.1217 30.0087 13.6051 29.9996H18.4666C18.95 30.0087 19.4212 29.8518 19.7978 29.5567C20.1744 29.2615 20.4324 28.8468 20.5266 28.3851L21.0519 25.8579C21.5216 25.6367 21.9758 25.3854 22.4115 25.1058L24.9041 25.9281C25.1167 25.9962 25.3394 26.0301 25.5633 26.0284C25.9245 26.028 26.2793 25.9352 26.592 25.7592C26.9048 25.5831 27.1645 25.3302 27.3451 25.0256L29.6935 21.0142C29.9339 20.6121 30.0233 20.1411 29.9462 19.6819C29.8692 19.2227 29.6306 18.8038 29.2712 18.4971L27.3245 16.7622ZM25.4809 24.0227L21.948 22.8594C21.121 23.5415 20.1758 24.0746 19.1567 24.4339L18.4254 28.0341H13.5639L12.8326 24.474C11.8216 24.1045 10.8815 23.5723 10.0516 22.8995L6.50844 24.0227L4.07766 20.0114L6.87923 17.6045C6.68879 16.5665 6.68879 15.5037 6.87923 14.4657L4.07766 11.9886L6.50844 7.97729L10.0413 9.14058C10.8683 8.45854 11.8135 7.9254 12.8326 7.56613L13.5639 3.96593H18.4254L19.1567 7.52601C20.1677 7.89548 21.1078 8.42771 21.9377 9.10047L25.4809 7.97729L27.9116 11.9886L25.1101 14.3955C25.3005 15.4335 25.3005 16.4963 25.1101 17.5343L27.9116 20.0114L25.4809 24.0227Z" fill="#E6E6E6"/>
<path d="M16 22C14.8133 22 13.6533 21.6481 12.6666 20.9888C11.6799 20.3295 10.9109 19.3925 10.4567 18.2961C10.0026 17.1997 9.88378 15.9933 10.1153 14.8295C10.3468 13.6656 10.9182 12.5965 11.7574 11.7574C12.5965 10.9182 13.6656 10.3468 14.8295 10.1153C15.9933 9.88378 17.1997 10.0026 18.2961 10.4567C19.3925 10.9109 20.3295 11.6799 20.9888 12.6666C21.6481 13.6533 22 14.8133 22 16C22.008 16.7902 21.8583 17.574 21.5596 18.3056C21.2609 19.0371 20.8193 19.7018 20.2605 20.2605C19.7018 20.8193 19.0371 21.2609 18.3056 21.5596C17.574 21.8583 16.7902 22.008 16 22ZM16 12C15.4713 11.9877 14.9457 12.0827 14.4548 12.2794C13.9639 12.4761 13.5181 12.7702 13.1442 13.1442C12.7702 13.5181 12.4761 13.9639 12.2794 14.4548C12.0827 14.9457 11.9877 15.4713 12 16C11.9877 16.5287 12.0827 17.0543 12.2794 17.5452C12.4761 18.0361 12.7702 18.4819 13.1442 18.8559C13.5181 19.2298 13.9639 19.524 14.4548 19.7206C14.9457 19.9173 15.4713 20.0123 16 20C16.5287 20.0123 17.0543 19.9173 17.5452 19.7206C18.0361 19.524 18.4819 19.2298 18.8559 18.8559C19.2298 18.4819 19.524 18.0361 19.7206 17.5452C19.9173 17.0543 20.0123 16.5287 20 16C20.0123 15.4713 19.9173 14.9457 19.7206 14.4548C19.524 13.9639 19.2298 13.5181 18.8559 13.1442C18.4819 12.7702 18.0361 12.4761 17.5452 12.2794C17.0543 12.0827 16.5287 11.9877 16 12Z" fill="#E6E6E6"/>
</svg>
