<svg width="24" height="18" viewBox="0 0 24 18" fill="none" xmlns="http://www.w3.org/2000/svg">
<path d="M0.319879 7.35547L23.4016 0.0223328C23.7482 -0.0881943 24.0791 0.229477 23.9832 0.580232L19.9448 15.3552C19.8734 15.6161 19.593 15.7589 19.3399 15.6631L11.1854 12.5788C10.8647 12.4574 10.7854 12.0397 11.0395 11.8096L17.4365 6.01335C17.8298 5.65734 17.4053 5.02876 16.9279 5.26109L6.21917 10.4694C6.10188 10.5265 5.96616 10.5307 5.84548 10.4814L0.285668 8.21751C-0.111703 8.05547 -0.0891469 7.48517 0.319879 7.35547ZM13.1504 8.60473C13.3512 8.43029 13.1282 8.116 12.897 8.24758L7.79399 11.0344C7.33384 11.2965 7.11767 11.8431 7.27407 12.3491L8.85039 17.6563C8.93047 17.9251 9.26806 18.0119 9.46769 17.8149L12.614 14.8367C12.7425 14.7097 12.7015 14.4927 12.5354 14.4221L9.2707 12.795C9.09137 12.7055 9.05603 12.4653 9.20152 12.3281L13.1504 8.60473Z" fill="#E6E6E6"/>
</svg>
