<svg width="13" height="11" viewBox="0 0 13 11" fill="none" xmlns="http://www.w3.org/2000/svg">
<path d="M7.72001 9.17566C7.64633 9.24765 7.58722 9.33446 7.54623 9.43093C7.50524 9.52739 7.4832 9.63152 7.48142 9.7371C7.47964 9.84269 7.49817 9.94757 7.53589 10.0455C7.57361 10.1434 7.62976 10.2324 7.70097 10.307C7.77219 10.3817 7.85703 10.4406 7.95041 10.4801C8.0438 10.5197 8.14383 10.5391 8.24453 10.5372C8.34524 10.5354 8.44455 10.5123 8.53655 10.4693C8.62855 10.4263 8.71135 10.3643 8.78001 10.2871L12.78 6.09306C12.8498 6.02019 12.9052 5.93359 12.943 5.83823C12.9807 5.74286 13.0002 5.64062 13.0002 5.53735C13.0002 5.43409 12.9807 5.33184 12.943 5.23648C12.9052 5.14112 12.8498 5.05452 12.78 4.98165L8.78001 0.787637C8.71135 0.710377 8.62855 0.648408 8.53655 0.605428C8.44455 0.562448 8.34524 0.539338 8.24454 0.537475C8.14383 0.535612 8.0438 0.555034 7.95042 0.594585C7.85703 0.634136 7.77219 0.693004 7.70098 0.767677C7.62976 0.84235 7.57361 0.931299 7.53589 1.02922C7.49817 1.12713 7.47964 1.23201 7.48142 1.3376C7.4832 1.44319 7.50524 1.54732 7.54623 1.64378C7.58722 1.74024 7.64633 1.82706 7.72001 1.89905L10.44 4.75098L0.750013 4.75098C0.551101 4.75098 0.360335 4.83383 0.219682 4.9813C0.0790299 5.12877 1.28531e-05 5.32879 1.28349e-05 5.53735C1.28166e-05 5.74591 0.0790299 5.94593 0.219682 6.0934C0.360334 6.24088 0.5511 6.32373 0.750013 6.32373L10.44 6.32373L7.72001 9.17566Z" fill="#699BF7"/>
</svg>
