<svg width="16" height="24" viewBox="0 0 16 24" fill="none" xmlns="http://www.w3.org/2000/svg">
<path d="M11.6747 0H3.47741C2.55535 0.000669143 1.67124 0.367393 1.01925 1.01964C0.367252 1.67188 0.000668887 2.55632 0 3.47874V20.5213C0.000668887 21.4437 0.367252 22.3281 1.01925 22.9804C1.67124 23.6326 2.55535 23.9993 3.47741 24H11.6747C12.5968 23.9993 13.4809 23.6326 14.1329 22.9804C14.7848 22.3281 15.1514 21.4437 15.1521 20.5213V3.47874C15.1514 2.55632 14.7848 1.67188 14.1329 1.01964C13.4809 0.367393 12.5968 0.000669143 11.6747 0ZM13.8894 20.5213C13.8881 21.1085 13.6543 21.6712 13.2393 22.0864C12.8242 22.5017 12.2617 22.7355 11.6747 22.7368H3.47741C2.89043 22.7355 2.32788 22.5017 1.91283 22.0864C1.49777 21.6712 1.26401 21.1085 1.26268 20.5213V3.47874C1.26401 2.89154 1.49777 2.32877 1.91283 1.91356C2.32788 1.49835 2.89043 1.26449 3.47741 1.26316H11.6747C12.2617 1.26449 12.8242 1.49835 13.2393 1.91356C13.6543 2.32877 13.8881 2.89154 13.8894 3.47874V20.5213Z" fill="#E6E6E6"/>
<path d="M9.97513 19.8315H5.17696C5.00952 19.8315 4.84894 19.8981 4.73054 20.0165C4.61214 20.135 4.54562 20.2956 4.54562 20.4631C4.54562 20.6306 4.61214 20.7913 4.73054 20.9097C4.84894 21.0282 5.00952 21.0947 5.17696 21.0947H9.97513C10.1426 21.0947 10.3032 21.0282 10.4215 20.9097C10.5399 20.7913 10.6065 20.6306 10.6065 20.4631C10.6065 20.2956 10.5399 20.135 10.4215 20.0165C10.3032 19.8981 10.1426 19.8315 9.97513 19.8315Z" fill="#E6E6E6"/>
</svg>
