<svg width={32} height={32} viewBox="0 0 32 32" fill="none" xmlns="http://www.w3.org/2000/svg">
  <path d="M16.7622 4.67547L15.2278 4.67547L13.543 2.69788C13.2302 2.33335 12.802 2.09413 12.334 2.0225C11.8661 1.95088 11.3885 2.05147 10.9858 2.30649L6.97445 4.73726C6.66985 4.91789 6.41685 5.1776 6.24083 5.49036C6.06482 5.80311 5.97197 6.15791 5.97161 6.51915C5.96994 6.74302 6.00381 6.96567 6.07189 7.17834L6.89422 9.68122C6.61464 10.1133 6.36337 10.5641 6.14209 11.0305L3.61494 11.5558C3.15324 11.65 2.7385 11.908 2.44332 12.2846C2.14815 12.6612 1.99135 13.1324 2.00037 13.6158L2.00037 18.4361C1.99135 18.9195 2.14815 19.3907 2.44332 19.7673C2.7385 20.1439 3.15324 20.4019 3.61494 20.4961L6.14209 21.0214C6.36332 21.4911 6.61458 21.9453 6.89422 22.381L6.03178 24.8324C5.97725 25.0473 5.95693 25.2699 5.97161 25.4916C5.97197 25.8528 6.06482 26.2076 6.24083 26.5204C6.41685 26.8331 6.66985 27.0928 6.97445 27.2734L10.9858 29.7042C11.3879 29.9446 11.8589 30.034 12.3181 29.9569C12.7773 29.8799 13.1962 29.6413 13.5029 29.2819L15.2378 27.3352L16.7722 27.3352L18.457 29.2819C18.7658 29.6514 19.1922 29.8966 19.6603 29.9739C20.1285 30.0512 20.6081 29.9556 21.0142 29.7042L25.0256 27.2734C25.3302 27.0928 25.5831 26.8331 25.7592 26.5204C25.9352 26.2076 26.028 25.8528 26.0284 25.4916C26.0301 25.2677 25.9962 25.045 25.9281 24.8324L25.1058 22.3295C25.3854 21.8974 25.6366 21.4466 25.8579 20.9802L28.3851 20.4549C28.8468 20.3607 29.2615 20.1027 29.5567 19.7261C29.8518 19.3495 30.0087 18.8783 29.9996 18.3949L29.9996 13.5334C30.0086 13.05 29.8518 12.5788 29.5567 12.2022C29.2615 11.8256 28.8468 11.5676 28.3851 11.4734L25.8579 10.9481C25.6367 10.4784 25.3854 10.0242 25.1058 9.58852L25.9281 7.09594C25.9962 6.88327 26.0301 6.66062 26.0284 6.43675C26.028 6.0755 25.9352 5.72071 25.7592 5.40796C25.5831 5.0952 25.3301 4.83549 25.0255 4.65486L21.0142 2.30649C20.6121 2.06608 20.1411 1.97674 19.6819 2.05378C19.2227 2.13082 18.8038 2.36945 18.4971 2.72878L16.7622 4.67547ZM24.0227 6.51915L22.8594 10.052C23.5415 10.879 24.0746 11.8242 24.4339 12.8433L28.0341 13.5746L28.0341 18.4361L24.474 19.1674C24.1045 20.1784 23.5723 21.1185 22.8995 21.9484L24.0227 25.4916L20.0114 27.9223L17.6045 25.1208C16.5665 25.3112 15.5037 25.3112 14.4657 25.1208L11.9886 27.9223L7.97729 25.4916L9.14058 21.9587C8.45854 21.1317 7.9254 20.1865 7.56612 19.1674L3.96593 18.4361L3.96593 13.5746L7.52601 12.8433C7.89548 11.8323 8.42771 10.8922 9.10047 10.0623L7.97729 6.51915L11.9886 4.08837L14.3955 6.88994C15.4335 6.6995 16.4963 6.6995 17.5343 6.88994L20.0114 4.08837L24.0227 6.51915Z" fill="#E6E6E6" />
  <path d="M22 16C22 17.1867 21.6481 18.3467 20.9888 19.3334C20.3295 20.3201 19.3925 21.0891 18.2961 21.5433C17.1997 21.9974 15.9933 22.1162 14.8295 21.8847C13.6656 21.6532 12.5965 21.0818 11.7574 20.2426C10.9182 19.4035 10.3468 18.3344 10.1153 17.1705C9.88378 16.0067 10.0026 14.8003 10.4567 13.7039C10.9109 12.6075 11.6799 11.6705 12.6666 11.0112C13.6533 10.3519 14.8133 10 16 10C16.7902 9.99198 17.574 10.1417 18.3056 10.4404C19.0371 10.7391 19.7018 11.1807 20.2605 11.7395C20.8193 12.2982 21.2609 12.9629 21.5596 13.6944C21.8583 14.426 22.008 15.2098 22 16ZM12 16C11.9877 16.5287 12.0827 17.0543 12.2794 17.5452C12.4761 18.0361 12.7702 18.4819 13.1442 18.8558C13.5181 19.2298 13.9639 19.5239 14.4548 19.7206C14.9457 19.9173 15.4713 20.0123 16 20C16.5287 20.0123 17.0543 19.9173 17.5452 19.7206C18.0361 19.5239 18.4819 19.2298 18.8559 18.8558C19.2298 18.4819 19.524 18.0361 19.7206 17.5452C19.9173 17.0543 20.0123 16.5287 20 16C20.0123 15.4713 19.9173 14.9457 19.7206 14.4548C19.524 13.9639 19.2298 13.5181 18.8558 13.1441C18.4819 12.7702 18.0361 12.476 17.5452 12.2794C17.0543 12.0827 16.5287 11.9877 16 12C15.4713 11.9877 14.9457 12.0827 14.4548 12.2794C13.9639 12.476 13.5181 12.7702 13.1442 13.1441C12.7702 13.5181 12.4761 13.9639 12.2794 14.4548C12.0827 14.9457 11.9877 15.4713 12 16Z" fill="#E6E6E6" />
</svg>

