<svg width={26} height={26} viewBox="0 0 26 26" fill="none" xmlns="http://www.w3.org/2000/svg">
  <path fillRule="evenodd" clipRule="evenodd" d="M12.9999 1C13.6016 1 14.1948 1.04457 14.7725 1.13028L15.6433 3.7685C16.4061 3.98621 17.1313 4.29648 17.8032 4.68733L20.306 3.48051C21.1923 4.16106 21.9808 4.96332 22.646 5.86158L21.3946 8.34209C21.7734 9.02093 22.0717 9.75119 22.2757 10.5192L24.8985 11.4329C25.043 12.542 25.0332 13.6658 24.8693 14.7722L22.2311 15.643C22.0149 16.3981 21.7063 17.1235 21.3123 17.803L22.5191 20.3058C21.8376 21.1923 21.0363 21.9798 20.138 22.6457L17.6575 21.3943C16.9713 21.7775 16.24 22.0735 15.4804 22.2754L14.5668 24.8982C13.4576 25.0427 12.3338 25.0329 11.2274 24.8691L10.3566 22.2309C9.60154 22.0146 8.87607 21.706 8.19664 21.312L5.69385 22.5189C4.80735 21.8374 4.01984 21.036 3.35391 20.1378L4.60531 17.6573C4.22305 16.9706 3.9271 16.2394 3.72419 15.4802L1.1014 14.5648C0.957054 13.4562 0.966861 12.333 1.13055 11.2272L3.76876 10.3563C3.98647 9.59348 4.29675 8.86836 4.68759 8.19638L3.48077 5.69359C4.16224 4.80708 4.9636 4.01957 5.86185 3.35365L8.34235 4.60505C9.02854 4.22186 9.75989 3.92586 10.5194 3.72393L11.4348 1.10114C11.9538 1.03362 12.4766 0.999839 12.9999 1Z" stroke="#E6E6E6" strokeWidth="0.933" strokeLinecap="round" strokeLinejoin="round" />
  <path d="M13 18.1424C15.8402 18.1424 18.1427 15.8399 18.1427 12.9997C18.1427 10.1594 15.8402 7.85693 13 7.85693C10.1597 7.85693 7.85724 10.1594 7.85724 12.9997C7.85724 15.8399 10.1597 18.1424 13 18.1424Z" stroke="#E6E6E6" strokeLinecap="round" strokeLinejoin="round" />
</svg>

