<svg width="10" height="19" viewBox="0 0 10 19" fill="none" xmlns="http://www.w3.org/2000/svg">
<path d="M1.30207 0.225224L9.76809 8.92708C9.91678 9.07993 10 9.28492 10 9.49836C10 9.71181 9.91678 9.9168 9.76809 10.0696L1.30207 18.7748C1.2328 18.8461 1.14999 18.9027 1.05852 18.9414C0.967041 18.9801 0.868759 19 0.769471 19C0.670183 19 0.571899 18.9801 0.480424 18.9414C0.388949 18.9027 0.306137 18.8461 0.236873 18.7748C0.0943743 18.6286 0.0145978 18.4324 0.0145978 18.228C0.0145978 18.0237 0.0943743 17.8275 0.236873 17.6813L8.19807 9.49836L0.236873 1.31705C0.0948632 1.17095 0.0153955 0.975072 0.0153955 0.771136C0.0153955 0.5672 0.0948632 0.371322 0.236873 0.225224C0.306137 0.153947 0.388949 0.0972948 0.480424 0.0586122C0.571899 0.0199295 0.670183 0 0.769471 0C0.868759 0 0.967041 0.0199295 1.05852 0.0586122C1.14999 0.0972948 1.2328 0.153947 1.30207 0.225224Z" fill="black"/>
</svg>
